<svg xmlns="http://www.w3.org/2000/svg" viewBox="0 0 558.000000 697.000000" fill="currentColor" role="img" aria-label="Fehrensen Coaching"><g transform="translate(0.000000,697.000000) scale(0.100000,-0.100000)"><path d="M2818 6800 c-9 -5 -30 -31 -46 -58 -62 -98 -177 -200 -361 -319 -175
-113 -245 -170 -290 -237 -14 -21 -34 -50 -43 -65 -32 -48 -61 -162 -62 -246
-1 -107 29 -197 110 -337 6 -11 39 -49 73 -84 51 -55 71 -82 59 -84 -2 -1 -37
-7 -78 -15 -41 -9 -115 -21 -165 -29 -138 -21 -266 -46 -310 -62 -22 -7 -60
-18 -85 -23 -76 -17 -172 -43 -247 -69 -71 -24 -73 -26 -73 -58 0 -43 34 -69
101 -78 29 -4 61 -11 70 -17 10 -5 42 -14 71 -19 29 -5 76 -16 103 -24 85 -26
187 -48 260 -58 39 -5 93 -15 120 -23 28 -7 78 -16 113 -20 70 -7 142 -29 154
-48 4 -7 8 -67 8 -133 0 -146 -2 -148 -110 -189 -41 -15 -93 -36 -116 -46 -22
-11 -46 -19 -52 -19 -7 0 -29 -9 -49 -20 -21 -11 -43 -20 -50 -20 -7 0 -30 -9
-50 -20 -21 -11 -43 -20 -50 -20 -7 0 -30 -9 -50 -20 -21 -11 -43 -20 -50 -20
-11 0 -37 -11 -149 -61 -23 -11 -45 -19 -49 -19 -10 0 -301 -114 -361 -142
-22 -10 -48 -18 -57 -18 -9 0 -19 -4 -22 -10 -3 -5 -27 -16 -53 -24 -26 -8
-60 -21 -77 -30 -16 -9 -36 -16 -43 -16 -6 0 -29 -9 -49 -20 -21 -11 -43 -20
-50 -20 -7 0 -30 -9 -50 -20 -21 -11 -46 -20 -55 -20 -47 0 -80 -88 -41 -108
10 -5 41 -13 68 -16 28 -4 70 -13 95 -21 25 -7 68 -16 95 -20 28 -3 70 -12 95
-20 25 -7 68 -16 97 -19 29 -4 71 -13 94 -21 23 -8 73 -15 110 -15 67 0 71 1
138 50 78 56 157 113 276 195 44 30 134 93 200 140 66 46 156 109 200 139 44
31 91 64 105 76 30 24 46 25 54 4 3 -9 6 -240 6 -514 0 -433 -2 -499 -15 -510
-9 -7 -52 -16 -98 -21 -126 -11 -403 -64 -497 -94 -25 -8 -65 -19 -90 -24 -50
-10 -129 -36 -175 -57 -16 -8 -45 -17 -63 -20 -19 -4 -40 -17 -49 -31 -14 -22
-14 -27 3 -64 23 -52 44 -65 118 -74 33 -4 71 -11 85 -16 13 -6 72 -14 130
-20 58 -5 129 -14 156 -20 28 -5 113 -14 190 -20 168 -11 274 -26 292 -41 10
-8 13 -58 12 -212 0 -110 -4 -223 -7 -251 l-7 -50 -105 -26 c-172 -43 -342
-110 -471 -185 -31 -19 -60 -34 -62 -34 -5 0 -102 -65 -195 -130 -153 -107
-335 -301 -411 -437 -35 -61 -27 -69 71 -77 45 -4 102 -12 126 -17 23 -5 96
-14 162 -19 66 -5 145 -16 177 -24 32 -8 85 -19 118 -25 149 -27 363 -74 435
-95 25 -8 77 -23 115 -34 39 -11 102 -29 140 -40 39 -12 81 -24 95 -27 14 -4
39 -12 55 -19 17 -8 46 -19 65 -26 19 -6 64 -23 100 -36 36 -14 83 -31 105
-39 87 -30 132 -47 173 -66 23 -10 61 -27 85 -38 23 -10 77 -35 120 -55 43
-20 80 -36 83 -36 3 0 51 -27 107 -59 57 -33 129 -73 162 -91 33 -17 74 -40
90 -50 17 -11 46 -29 65 -40 19 -11 80 -49 135 -85 55 -35 124 -78 152 -95 29
-17 90 -55 135 -85 141 -91 149 -95 176 -95 15 0 52 13 82 29 30 17 246 126
480 243 414 207 527 271 556 312 24 34 17 75 -17 107 -29 27 -36 29 -113 29
-45 0 -106 -6 -136 -14 -30 -8 -89 -19 -130 -25 -41 -6 -91 -15 -110 -21 -19
-6 -90 -14 -157 -17 -105 -5 -136 -3 -220 17 -109 25 -196 49 -323 91 -193 63
-247 83 -575 208 -60 23 -130 50 -155 61 -25 10 -94 37 -155 60 -60 22 -130
50 -155 60 -25 10 -56 22 -70 25 -14 3 -41 12 -60 19 -19 8 -75 26 -125 41
-49 15 -106 33 -125 40 -96 34 -265 79 -365 96 -27 4 -72 15 -100 23 -68 20
-242 54 -345 66 -47 6 -110 15 -140 20 -30 5 -92 9 -137 9 -96 1 -106 13 -45
53 83 56 298 169 359 189 19 6 47 17 61 25 15 8 34 14 42 14 8 0 27 6 42 14
15 8 42 17 60 21 18 4 45 14 60 21 41 21 267 44 435 44 146 0 153 1 167 22 14
20 16 186 16 1580 0 1234 3 1558 13 1565 6 4 53 11 102 14 128 8 237 38 375
104 194 92 333 269 360 460 16 120 -2 249 -48 338 -64 124 -173 225 -407 381
-191 126 -224 152 -320 253 -63 66 -109 86 -147 63z m179 -410 c69 -66 129
-120 133 -120 21 0 184 -199 212 -257 27 -57 29 -71 29 -168 0 -96 -3 -111
-28 -162 -53 -105 -146 -174 -298 -219 -125 -37 -372 -17 -447 37 -15 10 -30
19 -34 19 -34 0 -154 156 -154 201 0 13 -6 50 -14 82 -12 52 -12 66 4 127 15
60 50 135 70 150 4 3 24 28 44 55 21 28 85 100 144 160 59 61 127 134 151 163
23 28 47 52 53 52 6 0 66 -54 135 -120z"/><path d="M245 3219 c-17 -5 -40 -17 -52 -29 -26 -24 -40 -99 -24 -128 6 -12
55 -57 109 -100 54 -44 110 -95 124 -113 124 -159 196 -181 307 -91 105 85
129 170 72 249 -85 117 -242 189 -471 216 -19 2 -49 0 -65 -4z"/></g></svg>